<mxfile host="app.diagrams.net" modified="2023-08-08T07:36:11.480Z" agent="Mozilla/5.0 (Macintosh; Intel Mac OS X 10_15_7) AppleWebKit/537.36 (KHTML, like Gecko) Chrome/115.0.0.0 Safari/537.36" etag="ksaXs-CRpn0O5VB78drU" version="21.5.2" type="github">
  <diagram id="C5RBs43oDa-KdzZeNtuy" name="Page-1">
    <mxGraphModel dx="954" dy="500" grid="1" gridSize="10" guides="1" tooltips="1" connect="1" arrows="1" fold="1" page="0" pageScale="1" pageWidth="1200" pageHeight="1920" background="#ffffff" math="0" shadow="1">
      <root>
        <mxCell id="WIyWlLk6GJQsqaUBKTNV-0" />
        <mxCell id="WIyWlLk6GJQsqaUBKTNV-1" parent="WIyWlLk6GJQsqaUBKTNV-0" />
        <mxCell id="XvfhzSGcIjm5qeOm2keL-3" style="edgeStyle=orthogonalEdgeStyle;rounded=0;orthogonalLoop=1;jettySize=auto;html=1;strokeColor=#788AA3;fontColor=#46495D;fillColor=#B2C9AB;" edge="1" parent="WIyWlLk6GJQsqaUBKTNV-1" source="WIyWlLk6GJQsqaUBKTNV-3" target="XvfhzSGcIjm5qeOm2keL-2">
          <mxGeometry relative="1" as="geometry" />
        </mxCell>
        <mxCell id="WIyWlLk6GJQsqaUBKTNV-3" value="开始" style="rounded=1;whiteSpace=wrap;html=1;fontSize=12;glass=0;strokeWidth=1;shadow=0;fillColor=#B2C9AB;strokeColor=#788AA3;labelBackgroundColor=none;fontColor=#46495D;" parent="WIyWlLk6GJQsqaUBKTNV-1" vertex="1">
          <mxGeometry x="160" y="80" width="120" height="40" as="geometry" />
        </mxCell>
        <mxCell id="XvfhzSGcIjm5qeOm2keL-6" style="edgeStyle=orthogonalEdgeStyle;rounded=0;orthogonalLoop=1;jettySize=auto;html=1;entryX=0.5;entryY=0;entryDx=0;entryDy=0;entryPerimeter=0;strokeColor=#788AA3;fontColor=#46495D;fillColor=#B2C9AB;" edge="1" parent="WIyWlLk6GJQsqaUBKTNV-1" source="XvfhzSGcIjm5qeOm2keL-2" target="XvfhzSGcIjm5qeOm2keL-5">
          <mxGeometry relative="1" as="geometry" />
        </mxCell>
        <mxCell id="XvfhzSGcIjm5qeOm2keL-2" value="xxl-job 输入项目id" style="rounded=1;whiteSpace=wrap;html=1;strokeColor=#788AA3;fontColor=#46495D;fillColor=#B2C9AB;" vertex="1" parent="WIyWlLk6GJQsqaUBKTNV-1">
          <mxGeometry x="160" y="180" width="120" height="50" as="geometry" />
        </mxCell>
        <mxCell id="XvfhzSGcIjm5qeOm2keL-9" value="" style="edgeStyle=orthogonalEdgeStyle;rounded=0;orthogonalLoop=1;jettySize=auto;html=1;strokeColor=#788AA3;fontColor=#46495D;fillColor=#B2C9AB;" edge="1" parent="WIyWlLk6GJQsqaUBKTNV-1" source="XvfhzSGcIjm5qeOm2keL-5" target="XvfhzSGcIjm5qeOm2keL-8">
          <mxGeometry relative="1" as="geometry" />
        </mxCell>
        <mxCell id="XvfhzSGcIjm5qeOm2keL-11" value="" style="edgeStyle=orthogonalEdgeStyle;rounded=0;orthogonalLoop=1;jettySize=auto;html=1;strokeColor=#788AA3;fontColor=#46495D;fillColor=#B2C9AB;" edge="1" parent="WIyWlLk6GJQsqaUBKTNV-1" source="XvfhzSGcIjm5qeOm2keL-5" target="XvfhzSGcIjm5qeOm2keL-10">
          <mxGeometry relative="1" as="geometry" />
        </mxCell>
        <mxCell id="XvfhzSGcIjm5qeOm2keL-5" value="项目是否存在" style="strokeWidth=2;html=1;shape=mxgraph.flowchart.decision;whiteSpace=wrap;strokeColor=#788AA3;fontColor=#46495D;fillColor=#B2C9AB;" vertex="1" parent="WIyWlLk6GJQsqaUBKTNV-1">
          <mxGeometry x="170" y="280" width="100" height="100" as="geometry" />
        </mxCell>
        <mxCell id="XvfhzSGcIjm5qeOm2keL-37" value="" style="edgeStyle=orthogonalEdgeStyle;rounded=0;orthogonalLoop=1;jettySize=auto;html=1;strokeColor=#788AA3;fontColor=#46495D;fillColor=#B2C9AB;" edge="1" parent="WIyWlLk6GJQsqaUBKTNV-1" source="XvfhzSGcIjm5qeOm2keL-8" target="XvfhzSGcIjm5qeOm2keL-36">
          <mxGeometry relative="1" as="geometry" />
        </mxCell>
        <mxCell id="XvfhzSGcIjm5qeOm2keL-8" value="失败" style="whiteSpace=wrap;html=1;fillColor=#B2C9AB;strokeColor=#788AA3;fontColor=#46495D;strokeWidth=2;" vertex="1" parent="WIyWlLk6GJQsqaUBKTNV-1">
          <mxGeometry x="340" y="300" width="120" height="60" as="geometry" />
        </mxCell>
        <mxCell id="XvfhzSGcIjm5qeOm2keL-13" value="" style="edgeStyle=orthogonalEdgeStyle;rounded=0;orthogonalLoop=1;jettySize=auto;html=1;strokeColor=#788AA3;fontColor=#46495D;fillColor=#B2C9AB;" edge="1" parent="WIyWlLk6GJQsqaUBKTNV-1" source="XvfhzSGcIjm5qeOm2keL-10" target="XvfhzSGcIjm5qeOm2keL-12">
          <mxGeometry relative="1" as="geometry" />
        </mxCell>
        <mxCell id="XvfhzSGcIjm5qeOm2keL-15" value="" style="edgeStyle=orthogonalEdgeStyle;rounded=0;orthogonalLoop=1;jettySize=auto;html=1;strokeColor=#788AA3;fontColor=#46495D;fillColor=#B2C9AB;" edge="1" parent="WIyWlLk6GJQsqaUBKTNV-1" source="XvfhzSGcIjm5qeOm2keL-10" target="XvfhzSGcIjm5qeOm2keL-14">
          <mxGeometry relative="1" as="geometry" />
        </mxCell>
        <mxCell id="XvfhzSGcIjm5qeOm2keL-10" value="判断时间是否在额度计算时间内" style="strokeWidth=2;html=1;shape=mxgraph.flowchart.decision;whiteSpace=wrap;strokeColor=#788AA3;fontColor=#46495D;fillColor=#B2C9AB;" vertex="1" parent="WIyWlLk6GJQsqaUBKTNV-1">
          <mxGeometry x="170" y="460" width="100" height="100" as="geometry" />
        </mxCell>
        <mxCell id="XvfhzSGcIjm5qeOm2keL-32" value="" style="edgeStyle=orthogonalEdgeStyle;rounded=0;orthogonalLoop=1;jettySize=auto;html=1;strokeColor=#788AA3;fontColor=#46495D;fillColor=#B2C9AB;" edge="1" parent="WIyWlLk6GJQsqaUBKTNV-1" source="XvfhzSGcIjm5qeOm2keL-12" target="XvfhzSGcIjm5qeOm2keL-31">
          <mxGeometry relative="1" as="geometry" />
        </mxCell>
        <mxCell id="XvfhzSGcIjm5qeOm2keL-12" value="失败" style="whiteSpace=wrap;html=1;fillColor=#B2C9AB;strokeColor=#788AA3;fontColor=#46495D;strokeWidth=2;" vertex="1" parent="WIyWlLk6GJQsqaUBKTNV-1">
          <mxGeometry x="340" y="480" width="120" height="60" as="geometry" />
        </mxCell>
        <mxCell id="XvfhzSGcIjm5qeOm2keL-17" value="" style="edgeStyle=orthogonalEdgeStyle;rounded=0;orthogonalLoop=1;jettySize=auto;html=1;strokeColor=#788AA3;fontColor=#46495D;fillColor=#B2C9AB;" edge="1" parent="WIyWlLk6GJQsqaUBKTNV-1" source="XvfhzSGcIjm5qeOm2keL-14" target="XvfhzSGcIjm5qeOm2keL-16">
          <mxGeometry relative="1" as="geometry" />
        </mxCell>
        <mxCell id="XvfhzSGcIjm5qeOm2keL-14" value="计算快照期快照所有用户&lt;br&gt;" style="whiteSpace=wrap;html=1;fillColor=#B2C9AB;strokeColor=#788AA3;fontColor=#46495D;strokeWidth=2;" vertex="1" parent="WIyWlLk6GJQsqaUBKTNV-1">
          <mxGeometry x="160" y="660" width="120" height="60" as="geometry" />
        </mxCell>
        <mxCell id="XvfhzSGcIjm5qeOm2keL-19" value="" style="edgeStyle=orthogonalEdgeStyle;rounded=0;orthogonalLoop=1;jettySize=auto;html=1;strokeColor=#788AA3;fontColor=#46495D;fillColor=#B2C9AB;" edge="1" parent="WIyWlLk6GJQsqaUBKTNV-1" source="XvfhzSGcIjm5qeOm2keL-16" target="XvfhzSGcIjm5qeOm2keL-18">
          <mxGeometry relative="1" as="geometry" />
        </mxCell>
        <mxCell id="XvfhzSGcIjm5qeOm2keL-28" value="" style="edgeStyle=orthogonalEdgeStyle;rounded=0;orthogonalLoop=1;jettySize=auto;html=1;strokeColor=#788AA3;fontColor=#46495D;fillColor=#B2C9AB;" edge="1" parent="WIyWlLk6GJQsqaUBKTNV-1" source="XvfhzSGcIjm5qeOm2keL-16" target="XvfhzSGcIjm5qeOm2keL-27">
          <mxGeometry relative="1" as="geometry" />
        </mxCell>
        <mxCell id="XvfhzSGcIjm5qeOm2keL-16" value="排除做市等账户" style="whiteSpace=wrap;html=1;fillColor=#B2C9AB;strokeColor=#788AA3;fontColor=#46495D;strokeWidth=2;" vertex="1" parent="WIyWlLk6GJQsqaUBKTNV-1">
          <mxGeometry x="160" y="800" width="120" height="60" as="geometry" />
        </mxCell>
        <mxCell id="XvfhzSGcIjm5qeOm2keL-64" value="" style="edgeStyle=orthogonalEdgeStyle;rounded=0;orthogonalLoop=1;jettySize=auto;html=1;strokeColor=#788AA3;fontColor=#46495D;fillColor=#B2C9AB;" edge="1" parent="WIyWlLk6GJQsqaUBKTNV-1" source="XvfhzSGcIjm5qeOm2keL-18" target="XvfhzSGcIjm5qeOm2keL-63">
          <mxGeometry relative="1" as="geometry" />
        </mxCell>
        <mxCell id="XvfhzSGcIjm5qeOm2keL-18" value="遍历用户" style="whiteSpace=wrap;html=1;fillColor=#B2C9AB;strokeColor=#788AA3;fontColor=#46495D;strokeWidth=2;" vertex="1" parent="WIyWlLk6GJQsqaUBKTNV-1">
          <mxGeometry x="160" y="940" width="120" height="60" as="geometry" />
        </mxCell>
        <mxCell id="XvfhzSGcIjm5qeOm2keL-27" value="调用现货接口" style="whiteSpace=wrap;html=1;fillColor=#B2C9AB;strokeColor=#788AA3;fontColor=#46495D;strokeWidth=2;" vertex="1" parent="WIyWlLk6GJQsqaUBKTNV-1">
          <mxGeometry x="360" y="800" width="120" height="60" as="geometry" />
        </mxCell>
        <mxCell id="XvfhzSGcIjm5qeOm2keL-31" value="结束" style="whiteSpace=wrap;html=1;fillColor=#B2C9AB;strokeColor=#788AA3;fontColor=#46495D;strokeWidth=2;" vertex="1" parent="WIyWlLk6GJQsqaUBKTNV-1">
          <mxGeometry x="540" y="480" width="120" height="60" as="geometry" />
        </mxCell>
        <mxCell id="XvfhzSGcIjm5qeOm2keL-36" value="结束" style="whiteSpace=wrap;html=1;fillColor=#B2C9AB;strokeColor=#788AA3;fontColor=#46495D;strokeWidth=2;" vertex="1" parent="WIyWlLk6GJQsqaUBKTNV-1">
          <mxGeometry x="540" y="300" width="120" height="60" as="geometry" />
        </mxCell>
        <mxCell id="XvfhzSGcIjm5qeOm2keL-44" value="" style="edgeStyle=orthogonalEdgeStyle;rounded=0;orthogonalLoop=1;jettySize=auto;html=1;strokeColor=#788AA3;fontColor=#46495D;fillColor=#B2C9AB;" edge="1" parent="WIyWlLk6GJQsqaUBKTNV-1" target="XvfhzSGcIjm5qeOm2keL-43">
          <mxGeometry relative="1" as="geometry">
            <mxPoint x="260" y="1110" as="sourcePoint" />
          </mxGeometry>
        </mxCell>
        <mxCell id="XvfhzSGcIjm5qeOm2keL-52" value="" style="edgeStyle=orthogonalEdgeStyle;rounded=0;orthogonalLoop=1;jettySize=auto;html=1;strokeColor=#788AA3;fontColor=#46495D;fillColor=#B2C9AB;" edge="1" parent="WIyWlLk6GJQsqaUBKTNV-1" source="XvfhzSGcIjm5qeOm2keL-43" target="XvfhzSGcIjm5qeOm2keL-51">
          <mxGeometry relative="1" as="geometry" />
        </mxCell>
        <mxCell id="XvfhzSGcIjm5qeOm2keL-67" style="edgeStyle=orthogonalEdgeStyle;rounded=0;orthogonalLoop=1;jettySize=auto;html=1;entryX=1;entryY=0.5;entryDx=0;entryDy=0;strokeColor=#788AA3;fontColor=#46495D;fillColor=#B2C9AB;" edge="1" parent="WIyWlLk6GJQsqaUBKTNV-1" source="XvfhzSGcIjm5qeOm2keL-43" target="XvfhzSGcIjm5qeOm2keL-18">
          <mxGeometry relative="1" as="geometry">
            <Array as="points">
              <mxPoint x="380" y="1170" />
              <mxPoint x="660" y="1170" />
              <mxPoint x="660" y="970" />
            </Array>
          </mxGeometry>
        </mxCell>
        <mxCell id="XvfhzSGcIjm5qeOm2keL-43" value="判断交易数量是否达标" style="rhombus;whiteSpace=wrap;html=1;fillColor=#B2C9AB;strokeColor=#788AA3;fontColor=#46495D;strokeWidth=2;" vertex="1" parent="WIyWlLk6GJQsqaUBKTNV-1">
          <mxGeometry x="340" y="1070" width="80" height="80" as="geometry" />
        </mxCell>
        <mxCell id="XvfhzSGcIjm5qeOm2keL-51" value="计算有效用户" style="whiteSpace=wrap;html=1;fillColor=#B2C9AB;strokeColor=#788AA3;fontColor=#46495D;strokeWidth=2;" vertex="1" parent="WIyWlLk6GJQsqaUBKTNV-1">
          <mxGeometry x="480" y="1080" width="120" height="60" as="geometry" />
        </mxCell>
        <mxCell id="XvfhzSGcIjm5qeOm2keL-53" value="是" style="text;html=1;align=center;verticalAlign=middle;resizable=0;points=[];autosize=1;strokeColor=none;fillColor=none;fontColor=#46495D;" vertex="1" parent="WIyWlLk6GJQsqaUBKTNV-1">
          <mxGeometry x="430" y="1080" width="40" height="30" as="geometry" />
        </mxCell>
        <mxCell id="XvfhzSGcIjm5qeOm2keL-66" value="" style="edgeStyle=orthogonalEdgeStyle;rounded=0;orthogonalLoop=1;jettySize=auto;html=1;strokeColor=#788AA3;fontColor=#46495D;fillColor=#B2C9AB;" edge="1" parent="WIyWlLk6GJQsqaUBKTNV-1" source="XvfhzSGcIjm5qeOm2keL-63" target="XvfhzSGcIjm5qeOm2keL-65">
          <mxGeometry relative="1" as="geometry" />
        </mxCell>
        <mxCell id="XvfhzSGcIjm5qeOm2keL-63" value="用户是主账户无子账户" style="whiteSpace=wrap;html=1;fillColor=#B2C9AB;strokeColor=#788AA3;fontColor=#46495D;strokeWidth=2;" vertex="1" parent="WIyWlLk6GJQsqaUBKTNV-1">
          <mxGeometry x="160" y="1080" width="120" height="60" as="geometry" />
        </mxCell>
        <mxCell id="XvfhzSGcIjm5qeOm2keL-69" value="" style="edgeStyle=orthogonalEdgeStyle;rounded=0;orthogonalLoop=1;jettySize=auto;html=1;strokeColor=#788AA3;fontColor=#46495D;fillColor=#B2C9AB;" edge="1" parent="WIyWlLk6GJQsqaUBKTNV-1" source="XvfhzSGcIjm5qeOm2keL-65" target="XvfhzSGcIjm5qeOm2keL-68">
          <mxGeometry relative="1" as="geometry" />
        </mxCell>
        <mxCell id="XvfhzSGcIjm5qeOm2keL-83" value="" style="edgeStyle=orthogonalEdgeStyle;rounded=0;orthogonalLoop=1;jettySize=auto;html=1;strokeColor=#788AA3;fontColor=#46495D;fillColor=#B2C9AB;" edge="1" parent="WIyWlLk6GJQsqaUBKTNV-1" source="XvfhzSGcIjm5qeOm2keL-65" target="XvfhzSGcIjm5qeOm2keL-82">
          <mxGeometry relative="1" as="geometry" />
        </mxCell>
        <mxCell id="XvfhzSGcIjm5qeOm2keL-65" value="用户是主账户有子账户" style="whiteSpace=wrap;html=1;fillColor=#B2C9AB;strokeColor=#788AA3;fontColor=#46495D;strokeWidth=2;" vertex="1" parent="WIyWlLk6GJQsqaUBKTNV-1">
          <mxGeometry x="160" y="1220" width="120" height="60" as="geometry" />
        </mxCell>
        <mxCell id="XvfhzSGcIjm5qeOm2keL-73" value="" style="edgeStyle=orthogonalEdgeStyle;rounded=0;orthogonalLoop=1;jettySize=auto;html=1;strokeColor=#788AA3;fontColor=#46495D;fillColor=#B2C9AB;" edge="1" parent="WIyWlLk6GJQsqaUBKTNV-1" source="XvfhzSGcIjm5qeOm2keL-68" target="XvfhzSGcIjm5qeOm2keL-72">
          <mxGeometry relative="1" as="geometry" />
        </mxCell>
        <mxCell id="XvfhzSGcIjm5qeOm2keL-68" value="判断子账户是否在快照" style="whiteSpace=wrap;html=1;fillColor=#B2C9AB;strokeColor=#788AA3;fontColor=#46495D;strokeWidth=2;" vertex="1" parent="WIyWlLk6GJQsqaUBKTNV-1">
          <mxGeometry x="360" y="1220" width="120" height="60" as="geometry" />
        </mxCell>
        <mxCell id="XvfhzSGcIjm5qeOm2keL-75" value="" style="edgeStyle=orthogonalEdgeStyle;rounded=0;orthogonalLoop=1;jettySize=auto;html=1;strokeColor=#788AA3;fontColor=#46495D;fillColor=#B2C9AB;" edge="1" parent="WIyWlLk6GJQsqaUBKTNV-1" source="XvfhzSGcIjm5qeOm2keL-72" target="XvfhzSGcIjm5qeOm2keL-74">
          <mxGeometry relative="1" as="geometry" />
        </mxCell>
        <mxCell id="XvfhzSGcIjm5qeOm2keL-72" value="判断交易是否达表" style="rhombus;whiteSpace=wrap;html=1;fillColor=#B2C9AB;strokeColor=#788AA3;fontColor=#46495D;strokeWidth=2;" vertex="1" parent="WIyWlLk6GJQsqaUBKTNV-1">
          <mxGeometry x="580" y="1210" width="80" height="80" as="geometry" />
        </mxCell>
        <mxCell id="XvfhzSGcIjm5qeOm2keL-74" value="计算有效用户" style="whiteSpace=wrap;html=1;fillColor=#B2C9AB;strokeColor=#788AA3;fontColor=#46495D;strokeWidth=2;" vertex="1" parent="WIyWlLk6GJQsqaUBKTNV-1">
          <mxGeometry x="720" y="1220" width="120" height="60" as="geometry" />
        </mxCell>
        <mxCell id="XvfhzSGcIjm5qeOm2keL-76" value="是" style="text;html=1;align=center;verticalAlign=middle;resizable=0;points=[];autosize=1;strokeColor=none;fillColor=none;fontColor=#46495D;" vertex="1" parent="WIyWlLk6GJQsqaUBKTNV-1">
          <mxGeometry x="670" y="1218" width="40" height="30" as="geometry" />
        </mxCell>
        <mxCell id="XvfhzSGcIjm5qeOm2keL-81" value="" style="endArrow=classic;html=1;rounded=0;strokeColor=#788AA3;fontColor=#46495D;fillColor=#B2C9AB;exitX=0.5;exitY=1;exitDx=0;exitDy=0;" edge="1" parent="WIyWlLk6GJQsqaUBKTNV-1" source="XvfhzSGcIjm5qeOm2keL-72">
          <mxGeometry width="50" height="50" relative="1" as="geometry">
            <mxPoint x="460" y="1220" as="sourcePoint" />
            <mxPoint x="280" y="970" as="targetPoint" />
            <Array as="points">
              <mxPoint x="920" y="1290" />
              <mxPoint x="920" y="970" />
            </Array>
          </mxGeometry>
        </mxCell>
        <mxCell id="XvfhzSGcIjm5qeOm2keL-85" value="" style="edgeStyle=orthogonalEdgeStyle;rounded=0;orthogonalLoop=1;jettySize=auto;html=1;strokeColor=#788AA3;fontColor=#46495D;fillColor=#B2C9AB;" edge="1" parent="WIyWlLk6GJQsqaUBKTNV-1" source="XvfhzSGcIjm5qeOm2keL-82" target="XvfhzSGcIjm5qeOm2keL-84">
          <mxGeometry relative="1" as="geometry" />
        </mxCell>
        <mxCell id="XvfhzSGcIjm5qeOm2keL-94" value="" style="edgeStyle=orthogonalEdgeStyle;rounded=0;orthogonalLoop=1;jettySize=auto;html=1;strokeColor=#788AA3;fontColor=#46495D;fillColor=#B2C9AB;" edge="1" parent="WIyWlLk6GJQsqaUBKTNV-1" source="XvfhzSGcIjm5qeOm2keL-82" target="XvfhzSGcIjm5qeOm2keL-93">
          <mxGeometry relative="1" as="geometry" />
        </mxCell>
        <mxCell id="XvfhzSGcIjm5qeOm2keL-82" value="用户是子账户" style="whiteSpace=wrap;html=1;fillColor=#B2C9AB;strokeColor=#788AA3;fontColor=#46495D;strokeWidth=2;" vertex="1" parent="WIyWlLk6GJQsqaUBKTNV-1">
          <mxGeometry x="160" y="1360" width="120" height="60" as="geometry" />
        </mxCell>
        <mxCell id="XvfhzSGcIjm5qeOm2keL-88" value="" style="edgeStyle=orthogonalEdgeStyle;rounded=0;orthogonalLoop=1;jettySize=auto;html=1;strokeColor=#788AA3;fontColor=#46495D;fillColor=#B2C9AB;" edge="1" parent="WIyWlLk6GJQsqaUBKTNV-1" source="XvfhzSGcIjm5qeOm2keL-84" target="XvfhzSGcIjm5qeOm2keL-87">
          <mxGeometry relative="1" as="geometry" />
        </mxCell>
        <mxCell id="XvfhzSGcIjm5qeOm2keL-84" value="判断主账户是否在快照里" style="whiteSpace=wrap;html=1;fillColor=#B2C9AB;strokeColor=#788AA3;fontColor=#46495D;strokeWidth=2;" vertex="1" parent="WIyWlLk6GJQsqaUBKTNV-1">
          <mxGeometry x="360" y="1360" width="120" height="60" as="geometry" />
        </mxCell>
        <mxCell id="XvfhzSGcIjm5qeOm2keL-90" value="" style="edgeStyle=orthogonalEdgeStyle;rounded=0;orthogonalLoop=1;jettySize=auto;html=1;strokeColor=#788AA3;fontColor=#46495D;fillColor=#B2C9AB;" edge="1" parent="WIyWlLk6GJQsqaUBKTNV-1" source="XvfhzSGcIjm5qeOm2keL-87" target="XvfhzSGcIjm5qeOm2keL-89">
          <mxGeometry relative="1" as="geometry" />
        </mxCell>
        <mxCell id="XvfhzSGcIjm5qeOm2keL-87" value="判断交易是否达标" style="rhombus;whiteSpace=wrap;html=1;fillColor=#B2C9AB;strokeColor=#788AA3;fontColor=#46495D;strokeWidth=2;" vertex="1" parent="WIyWlLk6GJQsqaUBKTNV-1">
          <mxGeometry x="580" y="1350" width="80" height="80" as="geometry" />
        </mxCell>
        <mxCell id="XvfhzSGcIjm5qeOm2keL-89" value="计算有效用户" style="whiteSpace=wrap;html=1;fillColor=#B2C9AB;strokeColor=#788AA3;fontColor=#46495D;strokeWidth=2;" vertex="1" parent="WIyWlLk6GJQsqaUBKTNV-1">
          <mxGeometry x="720" y="1360" width="120" height="60" as="geometry" />
        </mxCell>
        <mxCell id="XvfhzSGcIjm5qeOm2keL-91" value="是" style="text;html=1;align=center;verticalAlign=middle;resizable=0;points=[];autosize=1;strokeColor=none;fillColor=none;fontColor=#46495D;" vertex="1" parent="WIyWlLk6GJQsqaUBKTNV-1">
          <mxGeometry x="670" y="1358" width="40" height="30" as="geometry" />
        </mxCell>
        <mxCell id="XvfhzSGcIjm5qeOm2keL-92" value="" style="endArrow=classic;html=1;rounded=0;strokeColor=#788AA3;fontColor=#46495D;fillColor=#B2C9AB;" edge="1" parent="WIyWlLk6GJQsqaUBKTNV-1">
          <mxGeometry width="50" height="50" relative="1" as="geometry">
            <mxPoint x="620" y="1440" as="sourcePoint" />
            <mxPoint x="920" y="1290" as="targetPoint" />
            <Array as="points">
              <mxPoint x="920" y="1440" />
            </Array>
          </mxGeometry>
        </mxCell>
        <mxCell id="XvfhzSGcIjm5qeOm2keL-96" value="" style="edgeStyle=orthogonalEdgeStyle;rounded=0;orthogonalLoop=1;jettySize=auto;html=1;strokeColor=#788AA3;fontColor=#46495D;fillColor=#B2C9AB;" edge="1" parent="WIyWlLk6GJQsqaUBKTNV-1" source="XvfhzSGcIjm5qeOm2keL-93" target="XvfhzSGcIjm5qeOm2keL-95">
          <mxGeometry relative="1" as="geometry" />
        </mxCell>
        <mxCell id="XvfhzSGcIjm5qeOm2keL-93" value="计算出有效的用户" style="whiteSpace=wrap;html=1;fillColor=#B2C9AB;strokeColor=#788AA3;fontColor=#46495D;strokeWidth=2;" vertex="1" parent="WIyWlLk6GJQsqaUBKTNV-1">
          <mxGeometry x="160" y="1500" width="120" height="60" as="geometry" />
        </mxCell>
        <mxCell id="XvfhzSGcIjm5qeOm2keL-98" value="" style="edgeStyle=orthogonalEdgeStyle;rounded=0;orthogonalLoop=1;jettySize=auto;html=1;strokeColor=#788AA3;fontColor=#46495D;fillColor=#B2C9AB;" edge="1" parent="WIyWlLk6GJQsqaUBKTNV-1" source="XvfhzSGcIjm5qeOm2keL-95" target="XvfhzSGcIjm5qeOm2keL-97">
          <mxGeometry relative="1" as="geometry" />
        </mxCell>
        <mxCell id="XvfhzSGcIjm5qeOm2keL-95" value="遍历用户" style="whiteSpace=wrap;html=1;fillColor=#B2C9AB;strokeColor=#788AA3;fontColor=#46495D;strokeWidth=2;" vertex="1" parent="WIyWlLk6GJQsqaUBKTNV-1">
          <mxGeometry x="160" y="1640" width="120" height="60" as="geometry" />
        </mxCell>
        <mxCell id="XvfhzSGcIjm5qeOm2keL-101" value="" style="edgeStyle=orthogonalEdgeStyle;rounded=0;orthogonalLoop=1;jettySize=auto;html=1;strokeColor=#788AA3;fontColor=#46495D;fillColor=#B2C9AB;" edge="1" parent="WIyWlLk6GJQsqaUBKTNV-1" source="XvfhzSGcIjm5qeOm2keL-97" target="XvfhzSGcIjm5qeOm2keL-100">
          <mxGeometry relative="1" as="geometry" />
        </mxCell>
        <mxCell id="XvfhzSGcIjm5qeOm2keL-104" value="" style="edgeStyle=orthogonalEdgeStyle;rounded=0;orthogonalLoop=1;jettySize=auto;html=1;strokeColor=#788AA3;fontColor=#46495D;fillColor=#B2C9AB;" edge="1" parent="WIyWlLk6GJQsqaUBKTNV-1" source="XvfhzSGcIjm5qeOm2keL-97" target="XvfhzSGcIjm5qeOm2keL-103">
          <mxGeometry relative="1" as="geometry" />
        </mxCell>
        <mxCell id="XvfhzSGcIjm5qeOm2keL-97" value="判断持仓数量是否达标" style="rhombus;whiteSpace=wrap;html=1;fillColor=#B2C9AB;strokeColor=#788AA3;fontColor=#46495D;strokeWidth=2;" vertex="1" parent="WIyWlLk6GJQsqaUBKTNV-1">
          <mxGeometry x="180" y="1770" width="80" height="80" as="geometry" />
        </mxCell>
        <mxCell id="XvfhzSGcIjm5qeOm2keL-100" value="记录0" style="whiteSpace=wrap;html=1;fillColor=#B2C9AB;strokeColor=#788AA3;fontColor=#46495D;strokeWidth=2;" vertex="1" parent="WIyWlLk6GJQsqaUBKTNV-1">
          <mxGeometry x="320" y="1780" width="120" height="60" as="geometry" />
        </mxCell>
        <mxCell id="XvfhzSGcIjm5qeOm2keL-102" value="否" style="text;html=1;align=center;verticalAlign=middle;resizable=0;points=[];autosize=1;strokeColor=none;fillColor=none;fontColor=#46495D;" vertex="1" parent="WIyWlLk6GJQsqaUBKTNV-1">
          <mxGeometry x="250" y="1778" width="40" height="30" as="geometry" />
        </mxCell>
        <mxCell id="XvfhzSGcIjm5qeOm2keL-105" style="edgeStyle=orthogonalEdgeStyle;rounded=0;orthogonalLoop=1;jettySize=auto;html=1;entryX=1;entryY=0.25;entryDx=0;entryDy=0;strokeColor=#788AA3;fontColor=#46495D;fillColor=#B2C9AB;" edge="1" parent="WIyWlLk6GJQsqaUBKTNV-1" source="XvfhzSGcIjm5qeOm2keL-103" target="XvfhzSGcIjm5qeOm2keL-95">
          <mxGeometry relative="1" as="geometry">
            <Array as="points">
              <mxPoint x="510" y="1970" />
              <mxPoint x="510" y="1655" />
            </Array>
          </mxGeometry>
        </mxCell>
        <mxCell id="XvfhzSGcIjm5qeOm2keL-107" value="" style="edgeStyle=orthogonalEdgeStyle;rounded=0;orthogonalLoop=1;jettySize=auto;html=1;strokeColor=#788AA3;fontColor=#46495D;fillColor=#B2C9AB;" edge="1" parent="WIyWlLk6GJQsqaUBKTNV-1" source="XvfhzSGcIjm5qeOm2keL-103" target="XvfhzSGcIjm5qeOm2keL-106">
          <mxGeometry relative="1" as="geometry" />
        </mxCell>
        <mxCell id="XvfhzSGcIjm5qeOm2keL-103" value="统计所有持仓价值" style="whiteSpace=wrap;html=1;fillColor=#B2C9AB;strokeColor=#788AA3;fontColor=#46495D;strokeWidth=2;" vertex="1" parent="WIyWlLk6GJQsqaUBKTNV-1">
          <mxGeometry x="160" y="1940" width="120" height="60" as="geometry" />
        </mxCell>
        <mxCell id="XvfhzSGcIjm5qeOm2keL-109" value="" style="edgeStyle=orthogonalEdgeStyle;rounded=0;orthogonalLoop=1;jettySize=auto;html=1;strokeColor=#788AA3;fontColor=#46495D;fillColor=#B2C9AB;" edge="1" parent="WIyWlLk6GJQsqaUBKTNV-1" source="XvfhzSGcIjm5qeOm2keL-106" target="XvfhzSGcIjm5qeOm2keL-108">
          <mxGeometry relative="1" as="geometry" />
        </mxCell>
        <mxCell id="XvfhzSGcIjm5qeOm2keL-106" value="保存用户额度&lt;br&gt;之前保存的数据逻辑删除" style="whiteSpace=wrap;html=1;fillColor=#B2C9AB;strokeColor=#788AA3;fontColor=#46495D;strokeWidth=2;" vertex="1" parent="WIyWlLk6GJQsqaUBKTNV-1">
          <mxGeometry x="160" y="2080" width="120" height="60" as="geometry" />
        </mxCell>
        <mxCell id="XvfhzSGcIjm5qeOm2keL-108" value="结束" style="whiteSpace=wrap;html=1;fillColor=#B2C9AB;strokeColor=#788AA3;fontColor=#46495D;strokeWidth=2;" vertex="1" parent="WIyWlLk6GJQsqaUBKTNV-1">
          <mxGeometry x="160" y="2220" width="120" height="60" as="geometry" />
        </mxCell>
      </root>
    </mxGraphModel>
  </diagram>
</mxfile>
